<svg xmlns="http://www.w3.org/2000/svg" width="10" height="10" viewBox="0 0 10 10">
  <g id="ChevronSize100">
    <rect id="Frame" width="10" height="10" fill="red" opacity="0"/>
    <path fill="#F5F5F5" d="M4.81616,7.96423A.87628.87628,0,0,0,5,7.999a.88.88,0,0,0,.18384-.03467.85473.85473,0,0,0,.14386-.02887.88334.88334,0,0,0,.18951-.12432.82653.82653,0,0,0,.09754-.064L5.6167,7.7442l.00586-.004L9.69775,3.61475a.87492.87492,0,1,0-1.24511-1.2295L5,5.88007,1.54736,2.38525a.87492.87492,0,1,0-1.24511,1.2295L4.37744,7.74023l.00586.004.00195.00287a.81976.81976,0,0,0,.0976.064.88482.88482,0,0,0,.18951.12432A.85511.85511,0,0,0,4.81616,7.96423Z"/>
  </g>
</svg>
